<svg id="svg" version="1.1" xmlns="http://www.w3.org/2000/svg" xmlns:xlink="http://www.w3.org/1999/xlink" width="400" height="400" viewBox="0, 0, 400,400"><g id="svgg"><path id="path0" d="M242.200 45.055 C 221.633 49.231,213.422 71.803,226.909 87.086 C 236.276 97.700,255.184 98.434,263.879 88.522 C 264.999 87.245,266.473 85.584,267.155 84.831 C 268.537 83.305,270.689 78.120,271.058 75.428 L 271.298 73.678 274.684 73.539 C 278.774 73.371,280.001 72.433,279.999 69.478 C 279.995 65.935,278.643 64.880,273.877 64.702 L 271.154 64.600 270.163 61.653 C 268.528 56.791,267.897 55.874,262.569 50.607 C 258.442 46.527,248.413 43.794,242.200 45.055 M185.400 111.200 C 184.740 111.368,180.311 111.527,175.557 111.553 L 166.914 111.600 166.661 114.024 C 166.383 116.681,166.928 119.891,167.772 120.568 C 168.067 120.806,168.800 122.170,169.399 123.600 C 169.999 125.030,170.684 126.613,170.922 127.119 C 171.529 128.406,173.974 131.200,174.494 131.200 C 174.732 131.200,175.843 131.905,176.963 132.767 C 178.083 133.628,179.495 134.557,180.100 134.831 C 180.705 135.105,181.200 135.555,181.200 135.831 C 181.200 136.540,184.144 137.503,187.118 137.768 C 188.504 137.891,189.960 138.164,190.354 138.376 C 190.785 138.606,199.578 138.772,212.341 138.789 L 233.610 138.819 233.505 124.910 L 233.400 111.000 218.225 110.895 C 208.379 110.827,202.908 110.932,202.645 111.195 C 202.116 111.724,196.400 111.728,196.400 111.200 C 196.400 110.731,187.242 110.731,185.400 111.200 M142.005 171.500 C 142.007 172.765,142.346 175.172,142.758 176.849 C 143.420 179.542,143.947 180.807,146.269 185.264 C 146.851 186.383,151.214 190.785,152.845 191.900 C 153.370 192.260,153.890 192.675,154.000 192.824 C 154.333 193.276,158.441 195.255,160.791 196.097 C 162.391 196.671,164.451 196.946,168.267 197.095 L 173.533 197.302 172.150 200.338 C 171.389 202.007,170.621 203.469,170.443 203.587 C 170.265 203.704,169.906 204.205,169.646 204.700 L 169.172 205.600 138.386 205.600 L 107.600 205.600 107.600 224.400 C 107.600 241.692,107.733 244.203,108.576 242.839 C 108.698 242.641,109.780 241.827,110.980 241.031 C 112.180 240.234,114.293 238.507,115.675 237.191 C 117.057 235.876,118.359 234.800,118.568 234.800 C 118.777 234.800,119.376 234.398,119.899 233.907 L 120.851 233.013 153.647 232.751 C 171.685 232.607,186.494 232.424,186.555 232.345 C 186.689 232.170,191.096 223.884,191.936 222.229 C 192.262 221.585,192.799 220.743,193.130 220.357 C 193.460 219.972,195.073 217.079,196.716 213.928 C 198.358 210.778,199.824 208.110,199.973 208.000 C 200.337 207.731,203.644 201.871,204.769 199.500 L 205.671 197.600 209.972 197.600 C 212.337 197.600,217.229 197.483,220.842 197.341 L 227.412 197.082 229.058 199.641 C 229.963 201.048,231.907 204.438,233.378 207.173 C 234.849 209.909,236.491 212.668,237.026 213.304 C 237.562 213.941,238.000 214.613,238.000 214.799 C 238.000 214.985,238.883 216.666,239.962 218.535 C 241.042 220.404,242.045 222.312,242.192 222.774 C 242.339 223.237,243.039 224.377,243.747 225.308 C 244.456 226.239,246.108 228.970,247.418 231.379 C 250.777 237.553,251.291 238.448,252.249 239.801 C 252.717 240.461,253.602 241.990,254.218 243.200 C 255.791 246.293,258.272 250.641,259.822 253.021 C 260.546 254.133,261.815 256.338,262.642 257.921 C 264.312 261.118,264.694 261.289,266.869 259.812 C 267.669 259.268,270.995 257.449,274.262 255.770 C 277.528 254.090,280.380 252.510,280.600 252.258 C 280.820 252.006,283.970 250.294,287.600 248.454 C 291.230 246.613,294.400 244.857,294.645 244.552 C 294.890 244.246,295.655 243.800,296.345 243.559 C 297.629 243.112,297.994 242.476,297.100 242.247 C 296.825 242.177,295.383 241.827,293.894 241.469 C 286.580 239.712,280.285 234.713,276.825 227.915 C 275.850 225.998,274.635 223.945,274.126 223.353 C 273.617 222.760,273.200 222.133,273.200 221.959 C 273.200 221.785,272.593 220.598,271.850 219.321 C 271.108 218.045,269.761 215.595,268.856 213.878 C 267.952 212.160,266.941 210.484,266.610 210.153 C 266.279 209.822,265.401 208.347,264.659 206.875 C 263.917 205.404,262.766 203.282,262.101 202.161 C 261.437 201.039,260.780 199.766,260.642 199.331 C 260.504 198.897,260.042 198.166,259.615 197.708 C 259.188 197.250,258.089 195.463,257.172 193.737 C 255.181 189.990,254.179 188.224,251.190 183.200 C 249.947 181.110,248.365 178.279,247.675 176.909 C 246.985 175.538,245.921 173.668,245.310 172.753 C 244.700 171.837,243.965 170.664,243.678 170.144 L 243.156 169.200 192.578 169.200 L 142.000 169.200 142.005 171.500 M47.900 330.625 C 47.735 330.795,47.600 335.403,47.600 340.867 L 47.600 350.800 52.100 350.796 C 60.769 350.789,62.161 349.254,61.932 339.958 C 61.785 333.988,61.300 332.705,58.668 331.321 C 57.308 330.606,48.474 330.035,47.900 330.625 M80.000 339.724 C 80.000 350.598,79.949 350.430,83.340 350.712 L 85.600 350.899 85.600 349.077 C 85.600 347.493,85.483 347.239,84.700 347.128 C 83.804 347.001,83.800 346.966,83.692 338.700 L 83.584 330.400 81.792 330.400 L 80.000 330.400 80.000 339.724 M87.600 332.420 L 87.600 334.440 89.600 334.348 L 91.600 334.257 91.600 332.329 L 91.600 330.400 89.600 330.400 L 87.600 330.400 87.600 332.420 M254.800 333.614 C 254.800 336.776,254.786 336.821,253.943 336.369 C 251.162 334.881,247.485 336.580,246.825 339.659 C 245.144 347.494,248.611 353.149,253.575 350.672 C 254.249 350.336,254.800 350.228,254.800 350.431 C 254.800 350.634,255.520 350.800,256.400 350.800 L 258.000 350.800 258.000 340.600 L 258.000 330.400 256.400 330.400 L 254.800 330.400 254.800 333.614 M169.200 334.000 C 169.200 335.511,169.053 336.000,168.600 336.000 C 168.167 336.000,168.000 336.444,168.000 337.600 C 168.000 338.756,168.167 339.200,168.600 339.200 C 169.089 339.200,169.202 339.882,169.210 342.900 C 169.226 349.427,169.920 350.765,173.300 350.787 L 175.200 350.800 175.200 349.028 C 175.200 347.495,175.079 347.238,174.300 347.128 C 173.446 347.007,173.394 346.800,173.286 343.100 L 173.171 339.200 174.186 339.200 C 175.102 339.200,175.200 339.046,175.200 337.600 C 175.200 336.160,175.100 336.000,174.200 336.000 C 173.267 336.000,173.200 335.867,173.200 334.000 L 173.200 332.000 171.200 332.000 L 169.200 332.000 169.200 334.000 M317.200 334.000 C 317.200 335.511,317.053 336.000,316.600 336.000 C 316.167 336.000,316.000 336.444,316.000 337.600 C 316.000 338.715,316.172 339.200,316.567 339.200 C 317.020 339.200,317.162 340.217,317.267 344.236 C 317.422 350.111,317.819 350.800,321.044 350.800 L 322.800 350.800 322.800 349.000 C 322.800 347.501,322.674 347.200,322.043 347.200 C 320.999 347.200,320.800 346.458,320.800 342.567 C 320.800 339.242,320.813 339.200,321.800 339.200 C 322.700 339.200,322.800 339.040,322.800 337.600 C 322.800 336.160,322.700 336.000,321.800 336.000 C 320.867 336.000,320.800 335.867,320.800 334.000 L 320.800 332.000 319.000 332.000 L 317.200 332.000 317.200 334.000 M57.156 335.374 C 58.071 336.289,58.212 336.801,58.342 339.667 C 58.606 345.466,57.427 347.200,53.220 347.200 L 51.200 347.200 51.200 340.544 L 51.200 333.889 53.658 334.112 C 55.593 334.287,56.338 334.556,57.156 335.374 M67.315 337.018 C 63.598 339.245,63.756 347.489,67.565 350.039 C 71.461 352.648,78.386 350.159,75.882 347.050 C 74.970 345.918,74.935 345.910,73.697 346.550 C 71.774 347.544,70.206 347.388,69.192 346.100 L 68.325 345.000 72.818 344.886 L 77.311 344.773 77.058 342.352 C 76.449 336.529,72.102 334.149,67.315 337.018 M87.600 343.378 L 87.600 350.800 89.609 350.800 L 91.618 350.800 91.509 343.500 L 91.400 336.200 89.500 336.078 L 87.600 335.956 87.600 343.378 M93.200 336.501 C 93.200 337.272,95.824 344.401,96.765 346.185 C 97.224 347.056,97.600 347.993,97.600 348.266 C 97.600 349.709,98.554 350.800,99.816 350.800 C 101.197 350.800,101.127 350.905,102.636 346.600 C 103.022 345.500,103.497 344.389,103.692 344.131 C 104.150 343.525,106.400 337.169,106.400 336.481 C 106.400 336.104,105.864 335.991,104.500 336.078 L 102.600 336.200 101.184 340.569 L 99.768 344.938 98.421 340.469 L 97.074 336.000 95.137 336.000 C 93.851 336.000,93.200 336.169,93.200 336.501 M110.400 336.701 C 106.226 338.786,106.525 348.280,110.835 350.504 C 113.152 351.700,119.600 350.318,119.600 348.626 C 119.600 347.293,117.244 345.957,116.015 346.592 C 114.251 347.504,112.900 347.349,111.741 346.100 L 110.721 345.000 115.360 344.887 L 120.000 344.775 119.983 343.687 C 119.884 337.531,115.352 334.227,110.400 336.701 M122.400 343.400 L 122.400 350.800 124.400 350.800 L 126.400 350.800 126.400 345.662 C 126.400 339.498,126.844 338.621,129.483 339.575 C 130.869 340.077,130.971 340.053,131.701 339.051 C 132.976 337.301,133.318 337.761,135.523 344.197 C 137.828 350.925,137.859 352.419,135.696 352.728 C 134.268 352.931,134.342 356.800,135.774 356.800 C 137.680 356.800,138.684 356.095,139.579 354.129 C 140.062 353.068,140.630 351.878,140.842 351.485 C 141.482 350.292,145.600 337.497,145.600 336.699 C 145.600 334.930,142.352 335.967,141.779 337.919 C 141.501 338.864,141.001 340.214,140.667 340.919 C 140.334 341.623,139.935 342.708,139.780 343.329 C 139.444 344.677,139.063 344.361,138.421 342.200 C 138.160 341.320,137.576 339.565,137.124 338.300 L 136.302 336.000 134.351 336.000 C 133.273 336.000,132.400 336.185,132.400 336.414 C 132.400 336.700,132.160 336.700,131.626 336.414 C 131.201 336.186,130.199 336.000,129.400 336.000 C 128.601 336.000,127.599 336.186,127.174 336.414 C 126.640 336.700,126.400 336.700,126.400 336.414 C 126.400 336.184,125.512 336.000,124.400 336.000 L 122.400 336.000 122.400 343.400 M156.400 336.725 C 155.062 337.369,154.419 337.921,154.406 338.439 C 154.391 339.045,157.635 340.125,158.093 339.667 C 158.905 338.855,161.088 339.105,161.777 340.089 C 162.926 341.729,162.614 342.000,159.580 342.000 C 155.143 342.000,154.000 342.863,154.000 346.214 C 154.000 350.433,155.006 350.944,163.100 350.836 L 166.000 350.797 166.000 345.179 C 166.000 338.767,165.615 337.500,163.386 336.568 C 161.577 335.813,158.136 335.890,156.400 336.725 M184.000 336.915 C 184.000 337.419,184.357 338.531,184.793 339.387 C 188.325 346.314,189.282 352.388,186.896 352.728 C 186.103 352.841,186.000 353.088,186.000 354.880 L 186.000 356.905 187.677 356.680 C 189.728 356.405,190.476 355.523,191.644 352.000 C 192.118 350.570,192.644 349.220,192.812 349.000 C 193.299 348.362,196.800 337.628,196.800 336.774 C 196.800 335.120,193.750 335.731,193.173 337.500 C 192.904 338.325,192.566 339.090,192.423 339.200 C 192.279 339.310,191.825 340.531,191.414 341.913 C 190.606 344.624,190.353 344.665,189.621 342.200 C 189.360 341.320,188.776 339.565,188.324 338.300 L 187.502 336.000 185.751 336.000 C 184.193 336.000,184.000 336.101,184.000 336.915 M200.357 336.798 C 196.787 338.685,196.864 348.372,200.464 350.233 C 203.551 351.829,208.369 350.730,209.432 348.186 C 210.589 345.416,210.101 338.787,208.637 337.404 C 207.002 335.859,202.726 335.546,200.357 336.798 M212.800 341.540 C 212.800 347.756,213.174 349.359,214.820 350.211 C 216.002 350.822,216.587 350.874,221.700 350.830 L 224.800 350.803 224.800 343.401 L 224.800 336.000 222.800 336.000 L 220.800 336.000 220.800 341.120 C 220.800 346.655,220.616 347.200,218.743 347.200 C 216.825 347.200,216.400 346.022,216.400 340.711 L 216.400 336.000 214.600 336.000 L 212.800 336.000 212.800 341.540 M228.000 343.400 L 228.000 350.800 229.800 350.800 L 231.600 350.800 231.600 345.800 C 231.600 339.657,232.271 338.429,234.960 339.654 C 235.993 340.125,238.400 338.506,238.400 337.340 C 238.400 336.263,233.938 335.577,232.374 336.414 C 231.840 336.700,231.600 336.700,231.600 336.414 C 231.600 336.186,230.790 336.000,229.800 336.000 L 228.000 336.000 228.000 343.400 M263.676 336.787 C 260.273 338.921,260.293 348.490,263.704 350.254 C 265.455 351.159,269.192 351.112,270.814 350.164 C 273.656 348.502,274.239 340.054,271.687 337.502 C 269.990 335.805,265.834 335.435,263.676 336.787 M278.757 336.599 C 275.228 338.517,275.030 347.575,278.462 350.114 C 279.854 351.143,284.298 351.221,285.792 350.242 C 289.110 348.068,288.834 338.256,285.409 336.631 C 283.770 335.854,280.161 335.836,278.757 336.599 M291.200 343.400 L 291.200 350.800 293.000 350.800 L 294.800 350.800 294.800 345.662 C 294.800 341.192,294.895 340.438,295.531 339.862 C 296.344 339.127,297.818 338.982,298.200 339.600 C 298.865 340.676,301.156 339.076,301.187 337.514 C 301.213 336.155,298.139 335.511,295.826 336.390 C 295.159 336.644,294.800 336.644,294.800 336.390 C 294.800 336.176,293.990 336.000,293.000 336.000 L 291.200 336.000 291.200 343.400 M304.600 336.633 C 300.087 339.087,302.070 344.800,307.434 344.800 C 310.417 344.800,311.551 345.889,309.778 347.051 C 308.712 347.750,308.190 347.675,304.914 346.354 C 302.005 345.180,300.434 348.729,303.316 349.964 C 309.202 352.487,313.993 350.952,314.320 346.439 C 314.556 343.167,313.572 342.199,309.600 341.800 C 306.602 341.499,305.541 340.835,306.400 339.800 C 307.036 339.034,308.636 339.036,310.817 339.806 C 312.617 340.441,314.400 339.612,314.400 338.141 C 314.400 336.468,306.999 335.329,304.600 336.633 M328.346 336.605 C 324.183 338.867,324.212 347.476,328.393 350.243 C 330.947 351.933,337.200 350.679,337.200 348.476 C 337.200 347.069,335.552 345.974,334.400 346.615 C 332.953 347.420,330.656 347.346,329.862 346.469 C 328.543 345.011,328.997 344.800,333.458 344.800 L 337.716 344.800 337.474 342.211 C 336.972 336.839,332.721 334.227,328.346 336.605 M340.493 346.100 L 340.600 356.200 342.300 356.323 L 344.000 356.446 344.000 353.415 L 344.000 350.385 345.100 350.688 C 350.613 352.206,353.695 347.374,352.147 339.636 C 351.546 336.629,347.596 334.904,344.774 336.414 C 344.240 336.700,344.000 336.700,344.000 336.414 C 344.000 336.186,343.187 336.000,342.193 336.000 L 340.386 336.000 340.493 346.100 M72.469 339.862 C 73.962 341.214,73.422 342.000,71.000 342.000 C 68.595 342.000,68.141 341.391,69.462 339.931 C 70.285 339.022,71.509 338.994,72.469 339.862 M115.577 340.477 C 116.376 341.907,116.127 342.062,113.256 341.920 L 110.818 341.800 111.855 340.478 C 113.136 338.845,114.665 338.845,115.577 340.477 M205.394 339.746 C 206.460 340.526,206.755 344.799,205.839 346.197 C 204.030 348.957,201.391 346.764,201.682 342.743 C 201.863 340.230,202.537 339.200,204.000 339.200 C 204.356 339.200,204.983 339.446,205.394 339.746 M254.069 339.862 C 255.165 340.855,255.118 345.682,254.000 346.800 C 251.949 348.851,250.000 347.162,250.000 343.331 C 250.000 339.566,251.927 337.924,254.069 339.862 M268.919 339.910 C 271.060 342.277,269.899 347.200,267.200 347.200 C 265.338 347.200,264.800 346.302,264.800 343.194 C 264.800 339.589,267.024 337.816,268.919 339.910 M283.838 340.042 C 284.945 341.266,284.935 345.819,283.824 346.632 C 281.460 348.361,279.600 346.924,279.600 343.371 C 279.600 339.608,281.847 337.842,283.838 340.042 M333.014 339.846 C 334.912 341.090,334.314 342.000,331.600 342.000 C 328.986 342.000,328.507 341.429,329.862 339.931 C 330.679 339.029,331.723 339.000,333.014 339.846 M347.814 339.846 C 348.820 340.505,349.301 345.032,348.494 346.240 C 346.682 348.953,344.200 347.261,344.200 343.313 C 344.200 339.397,345.389 338.257,347.814 339.846 M162.400 345.720 C 162.400 347.023,161.663 347.600,160.000 347.600 C 157.989 347.600,156.556 345.688,158.100 345.065 C 159.741 344.403,162.400 344.808,162.400 345.720 " stroke="none" fill="#24245c" fill-rule="evenodd"></path><path id="path1" d="M139.409 43.682 C 136.334 43.882,133.724 44.188,133.609 44.362 C 133.494 44.536,132.140 44.799,130.600 44.947 C 129.060 45.095,125.820 45.402,123.400 45.630 C 111.958 46.706,97.683 49.817,96.419 51.509 C 96.298 51.670,95.717 52.050,95.126 52.354 C 90.251 54.865,88.257 60.005,90.361 64.638 C 91.151 66.376,93.278 68.800,94.013 68.800 C 94.270 68.800,94.349 69.130,94.203 69.590 C 93.738 71.057,96.664 80.000,97.610 80.000 C 97.824 80.000,98.000 80.816,98.000 81.813 C 98.000 83.647,98.791 86.060,99.760 87.185 C 100.052 87.523,100.402 88.391,100.538 89.113 C 101.114 92.171,102.081 94.800,102.628 94.800 C 102.994 94.800,103.200 95.223,103.200 95.976 C 103.200 96.623,103.719 98.153,104.354 99.376 C 104.988 100.599,105.334 101.600,105.122 101.600 C 104.673 101.600,105.039 103.635,105.806 105.400 C 106.093 106.060,106.417 107.725,106.526 109.100 C 106.752 111.956,108.102 114.649,109.976 115.983 C 111.036 116.738,111.544 118.400,110.715 118.400 C 109.303 118.400,110.945 125.184,112.937 127.581 C 113.220 127.922,113.877 129.595,114.396 131.300 C 115.486 134.878,115.896 135.165,116.106 132.500 L 116.256 130.600 116.328 132.640 C 116.368 133.762,116.604 135.267,116.854 135.983 C 117.207 136.994,117.196 137.355,116.806 137.596 C 116.413 137.839,116.463 138.370,117.036 140.053 C 117.438 141.234,117.797 142.335,117.834 142.500 C 117.870 142.665,117.944 142.935,117.997 143.100 C 118.051 143.265,118.073 143.535,118.047 143.700 C 118.021 143.865,118.159 144.000,118.353 144.000 C 118.548 144.000,118.801 144.360,118.916 144.800 C 119.344 146.436,120.001 145.573,120.059 143.300 L 120.117 141.000 120.405 143.800 C 120.563 145.340,120.989 147.275,121.352 148.100 C 121.723 148.946,121.834 149.600,121.605 149.600 C 120.197 149.600,124.114 156.149,127.348 159.200 C 133.597 165.097,139.236 166.581,155.200 166.529 C 169.244 166.484,175.827 164.977,180.800 160.666 C 184.487 157.470,189.182 150.344,188.062 149.643 C 187.622 149.367,187.653 149.062,188.235 147.953 C 188.626 147.209,189.067 145.340,189.214 143.800 L 189.483 141.000 189.541 143.333 C 189.613 146.198,190.252 146.200,191.224 143.338 C 192.588 139.326,192.606 138.800,191.378 138.800 C 190.781 138.800,189.187 138.596,187.836 138.347 C 185.514 137.920,185.267 137.952,183.293 138.953 C 182.145 139.535,181.105 139.994,180.982 139.973 C 180.859 139.953,180.362 140.189,179.879 140.498 C 177.984 141.710,177.484 141.711,177.797 140.505 C 177.954 139.897,178.120 139.220,178.166 139.000 C 178.468 137.543,178.968 136.811,179.866 136.511 C 180.862 136.179,180.795 136.093,177.786 133.829 L 174.678 131.489 170.039 132.145 C 167.488 132.506,164.920 132.801,164.333 132.800 C 163.747 132.800,163.207 132.953,163.133 133.140 C 163.060 133.327,161.515 133.601,159.700 133.750 L 156.400 134.019 156.400 130.672 L 156.400 127.324 162.324 127.081 C 165.582 126.947,168.713 126.661,169.281 126.445 L 170.314 126.053 168.857 123.198 L 167.400 120.343 165.600 120.561 C 164.610 120.681,162.135 120.899,160.100 121.047 L 156.400 121.315 156.401 118.357 L 156.401 115.400 160.301 115.285 C 166.257 115.110,166.360 115.072,166.273 113.074 L 166.200 111.400 176.600 111.186 L 187.000 110.972 191.600 109.354 C 194.130 108.464,196.527 107.592,196.928 107.415 C 197.619 107.109,197.624 107.168,197.028 108.595 C 195.970 111.126,196.042 111.200,199.557 111.200 C 203.130 111.200,203.200 111.139,203.200 108.047 C 203.200 107.009,203.349 105.989,203.530 105.780 C 204.231 104.974,204.989 101.863,204.523 101.708 C 204.232 101.611,204.413 100.958,205.031 99.878 C 205.626 98.838,205.992 97.554,205.995 96.500 C 205.998 95.561,206.192 94.800,206.429 94.800 C 206.907 94.800,208.009 93.800,208.065 93.314 C 208.126 92.789,208.267 92.264,208.744 90.772 C 208.995 89.986,209.200 88.962,209.200 88.495 C 209.200 88.029,209.383 87.534,209.606 87.396 C 210.524 86.829,211.600 83.949,211.600 82.059 C 211.600 80.796,211.790 80.013,212.127 79.884 C 212.416 79.772,213.056 78.268,213.548 76.541 C 214.040 74.813,214.727 72.783,215.074 72.030 C 215.522 71.055,215.588 70.472,215.300 70.012 C 214.979 69.497,215.170 69.186,216.239 68.485 C 219.583 66.293,221.069 60.464,219.212 56.823 C 218.473 55.376,215.829 52.800,215.082 52.800 C 214.898 52.800,214.174 52.377,213.473 51.860 C 209.674 49.056,199.256 46.880,181.400 45.159 C 178.540 44.883,176.110 44.533,176.000 44.382 C 175.302 43.422,150.632 42.950,139.409 43.682 M170.000 50.398 C 177.677 50.853,184.021 51.562,184.618 52.033 C 184.849 52.214,185.389 52.353,185.818 52.342 C 186.865 52.314,193.786 53.721,197.986 54.816 C 202.165 55.905,208.417 58.425,209.465 59.443 C 209.893 59.859,210.834 60.679,211.555 61.264 L 212.866 62.327 211.133 63.339 C 209.235 64.447,207.663 65.100,206.290 65.351 C 204.616 65.656,201.800 66.478,201.400 66.778 C 200.291 67.608,191.243 68.500,190.587 67.845 C 189.737 66.995,186.577 66.962,186.255 67.800 C 186.112 68.173,185.503 68.400,184.646 68.400 C 183.887 68.400,183.207 68.575,183.133 68.788 C 182.971 69.261,175.302 69.867,164.758 70.241 L 156.917 70.519 156.651 69.459 C 156.419 68.537,156.181 68.400,154.800 68.400 C 153.419 68.400,153.181 68.537,152.949 69.459 L 152.683 70.519 144.842 70.241 C 134.478 69.874,126.707 69.267,126.228 68.788 C 126.014 68.574,125.355 68.400,124.763 68.400 C 124.170 68.400,123.582 68.130,123.455 67.800 C 123.133 66.961,119.866 66.991,119.017 67.841 C 118.350 68.507,109.240 67.613,108.191 66.778 C 107.966 66.599,106.234 66.065,104.343 65.590 C 102.452 65.116,99.973 64.196,98.836 63.546 L 96.767 62.365 98.483 60.935 C 99.427 60.148,100.290 59.371,100.400 59.208 C 101.553 57.498,114.499 53.612,122.600 52.545 C 123.700 52.401,124.690 52.147,124.800 51.983 C 125.649 50.711,156.829 49.618,170.000 50.398 M106.400 54.562 C 106.400 54.652,105.548 55.015,104.507 55.370 C 101.684 56.332,98.747 58.260,97.435 60.012 C 96.232 61.620,95.365 61.770,95.835 60.289 C 96.179 59.205,97.242 58.335,100.108 56.789 C 102.716 55.383,106.400 54.079,106.400 54.562 M205.646 55.147 C 210.473 56.808,213.600 59.009,213.600 60.747 C 213.600 61.150,212.945 60.702,211.825 59.534 C 210.250 57.890,209.026 57.166,204.000 54.904 C 202.445 54.204,203.253 54.324,205.646 55.147 M102.452 72.400 C 102.838 72.400,103.264 72.580,103.400 72.800 C 103.536 73.020,103.470 73.200,103.254 73.200 C 103.038 73.200,102.353 73.708,101.731 74.328 C 99.611 76.444,99.001 76.266,97.913 73.213 L 96.953 70.519 99.352 71.460 C 100.672 71.977,102.067 72.400,102.452 72.400 M211.708 73.153 C 210.708 75.961,210.096 76.349,208.607 75.123 C 206.036 73.006,205.719 72.400,207.181 72.400 C 207.653 72.400,212.250 70.747,212.645 70.435 C 212.669 70.416,212.248 71.639,211.708 73.153 M108.214 74.034 C 108.664 74.383,117.541 76.000,119.011 76.000 C 119.855 76.000,120.800 78.924,120.800 81.533 C 120.800 82.095,119.460 82.147,118.495 81.622 C 118.113 81.415,115.647 80.862,113.016 80.395 C 108.904 79.665,102.000 77.513,102.000 76.962 C 102.000 74.943,106.595 72.777,108.214 74.034 M205.858 75.088 L 207.519 76.977 204.910 78.126 C 203.475 78.758,200.568 79.631,198.451 80.066 C 196.333 80.501,194.150 80.958,193.600 81.081 C 193.050 81.204,192.289 81.292,191.908 81.278 C 191.527 81.263,191.112 81.419,190.984 81.625 C 190.655 82.158,188.800 82.091,188.800 81.546 C 188.800 81.296,189.007 79.967,189.261 78.592 L 189.722 76.091 192.961 75.657 C 194.742 75.419,196.560 75.152,197.000 75.065 C 197.440 74.977,198.520 74.776,199.400 74.617 C 200.280 74.458,201.180 74.182,201.400 74.003 C 201.620 73.823,202.250 73.594,202.800 73.493 C 203.350 73.392,203.889 73.284,203.998 73.254 C 204.107 73.225,204.944 74.050,205.858 75.088 M143.900 77.834 L 152.800 78.125 152.800 81.300 L 152.800 84.476 146.700 84.228 C 136.049 83.794,128.459 83.130,128.261 82.615 C 128.161 82.354,127.954 80.979,127.802 79.560 L 127.526 76.981 131.263 77.262 C 133.318 77.417,139.005 77.674,143.900 77.834 M181.810 79.300 C 181.374 83.371,181.958 83.014,174.894 83.528 C 171.432 83.780,165.945 84.094,162.700 84.226 L 156.800 84.467 156.800 81.295 L 156.800 78.123 165.900 77.814 C 173.614 77.552,181.431 77.088,181.939 76.862 C 182.016 76.828,181.958 77.925,181.810 79.300 M112.800 85.735 C 115.330 86.302,118.413 86.962,119.651 87.201 L 121.902 87.636 122.171 89.665 C 122.509 92.212,122.835 92.078,118.391 91.217 C 110.180 89.625,108.818 88.969,109.905 87.130 C 110.841 85.545,110.228 85.280,108.161 86.377 C 106.187 87.424,104.428 86.832,104.163 85.031 C 104.104 84.627,103.863 84.103,103.628 83.868 C 102.674 82.914,103.328 82.884,105.700 83.770 C 107.075 84.284,110.270 85.168,112.800 85.735 M205.589 84.439 C 204.863 86.969,203.518 87.626,201.535 86.417 C 198.923 84.825,197.960 85.625,199.900 87.776 C 200.505 88.447,200.837 88.863,200.637 88.701 C 200.437 88.539,200.077 88.562,199.837 88.751 C 198.832 89.541,187.743 92.239,187.280 91.806 C 187.214 91.744,187.281 90.781,187.429 89.665 L 187.698 87.636 189.949 87.213 C 194.111 86.430,202.589 84.342,203.800 83.801 C 205.723 82.942,205.991 83.038,205.589 84.439 M138.922 89.981 C 141.739 90.211,146.014 90.400,148.422 90.400 L 152.800 90.400 152.800 92.600 C 152.800 94.680,152.745 94.800,151.800 94.800 C 150.867 94.800,150.800 94.667,150.800 92.800 C 150.800 91.700,150.620 90.800,150.400 90.800 C 150.180 90.800,150.000 91.728,150.000 92.861 L 150.000 94.922 145.500 94.678 C 138.726 94.310,129.843 93.192,129.508 92.665 C 128.134 90.505,129.370 88.803,131.988 89.252 C 132.985 89.422,136.105 89.750,138.922 89.981 M180.401 90.794 C 180.260 91.891,180.067 92.859,179.972 92.946 C 179.657 93.235,168.668 94.436,164.100 94.681 L 159.600 94.922 159.600 92.861 C 159.600 91.728,159.420 90.800,159.200 90.800 C 158.980 90.800,158.800 91.700,158.800 92.800 C 158.800 94.667,158.733 94.800,157.800 94.800 C 156.858 94.800,156.800 94.676,156.800 92.663 L 156.800 90.526 164.500 90.237 C 170.560 90.009,178.671 89.307,180.428 88.858 C 180.554 88.826,180.541 89.697,180.401 90.794 M116.600 96.418 C 117.040 96.627,118.840 97.120,120.600 97.514 L 123.800 98.231 124.354 101.728 C 124.659 103.651,124.814 105.319,124.699 105.435 C 124.366 105.767,117.032 103.944,116.706 103.447 C 116.539 103.194,116.407 103.173,116.400 103.400 C 116.392 103.657,116.283 103.653,116.094 103.389 C 115.932 103.163,115.028 102.637,114.083 102.221 C 112.980 101.734,112.444 101.274,112.583 100.932 C 113.430 98.854,113.637 98.969,110.586 99.821 C 109.874 100.020,109.656 99.684,108.833 97.124 C 108.317 95.516,107.818 93.999,107.725 93.754 C 107.574 93.356,114.570 95.457,116.600 96.418 M201.134 96.031 C 200.660 97.444,200.122 98.660,199.937 98.733 C 199.751 98.807,199.600 99.143,199.600 99.480 C 199.600 99.909,199.359 100.019,198.800 99.847 C 195.951 98.968,196.164 98.837,197.021 100.942 C 197.169 101.306,196.544 101.782,195.121 102.392 C 193.954 102.892,192.910 103.423,192.800 103.574 C 192.591 103.860,185.749 105.600,184.835 105.600 C 184.250 105.600,184.590 101.181,185.205 100.799 C 185.382 100.688,185.589 100.064,185.664 99.412 C 185.794 98.281,185.945 98.194,189.000 97.501 C 190.760 97.102,192.650 96.584,193.200 96.351 C 194.493 95.802,201.770 93.341,201.897 93.409 C 201.951 93.438,201.607 94.617,201.134 96.031 M136.600 100.193 C 139.020 100.516,143.655 100.902,146.900 101.051 L 152.800 101.323 152.800 105.262 C 152.800 108.819,152.729 109.200,152.064 109.200 C 149.630 109.200,134.807 107.555,132.145 106.989 C 131.242 106.797,131.085 106.288,130.575 101.900 C 130.259 99.178,129.851 99.294,136.600 100.193 M179.025 101.900 C 178.522 106.231,178.370 106.721,177.459 106.949 C 175.500 107.441,159.913 109.199,157.500 109.200 C 156.880 109.200,156.800 108.743,156.800 105.200 L 156.800 101.200 159.725 101.200 C 162.810 101.200,175.662 100.071,175.959 99.774 C 176.055 99.678,176.844 99.600,177.713 99.600 L 179.292 99.600 179.025 101.900 M116.067 108.760 C 117.240 109.185,119.280 109.835,120.600 110.204 C 121.920 110.573,123.180 111.022,123.400 111.202 C 123.620 111.381,124.423 111.689,125.183 111.885 C 126.517 112.229,127.235 113.965,127.575 117.668 C 127.600 117.941,119.682 115.968,117.297 115.107 C 116.084 114.670,116.012 114.542,116.253 113.257 C 116.482 112.037,116.424 111.902,115.756 112.090 C 115.340 112.207,114.753 112.369,114.450 112.451 C 114.122 112.540,113.747 112.115,113.521 111.400 C 113.097 110.061,112.493 108.564,111.939 107.482 C 111.593 106.808,111.642 106.801,112.753 107.376 C 113.403 107.712,114.895 108.335,116.067 108.760 M136.630 114.177 C 138.813 114.495,142.490 114.860,144.800 114.990 C 147.110 115.119,149.945 115.323,151.100 115.442 L 153.200 115.658 153.200 118.429 L 153.200 121.200 151.869 121.200 C 148.190 121.200,133.260 119.366,132.752 118.852 C 132.360 118.455,131.975 113.600,132.336 113.600 C 132.514 113.600,134.446 113.860,136.630 114.177 M120.895 121.961 C 122.933 122.599,125.528 123.333,126.661 123.591 C 128.921 124.107,128.773 123.842,129.432 128.543 C 129.682 130.333,129.643 130.468,128.941 130.245 C 128.521 130.112,127.147 129.734,125.887 129.406 C 122.526 128.530,120.685 127.680,120.900 127.102 C 121.894 124.435,122.110 123.577,121.854 123.321 C 121.419 122.886,119.484 124.078,118.978 125.094 C 118.579 125.895,118.487 125.800,117.809 123.881 C 117.404 122.737,116.992 121.575,116.894 121.300 C 116.654 120.631,116.651 120.631,120.895 121.961 M138.000 126.025 C 139.491 126.569,145.724 127.193,149.700 127.197 L 153.200 127.200 153.200 130.609 L 153.200 134.019 149.900 133.750 C 148.085 133.601,146.510 133.355,146.400 133.203 C 146.290 133.050,145.480 132.891,144.600 132.848 C 143.720 132.806,141.212 132.463,139.026 132.086 C 134.574 131.318,134.797 131.544,134.200 127.197 L 133.918 125.148 135.459 125.404 C 136.307 125.545,137.450 125.825,138.000 126.025 M128.400 136.129 L 131.000 137.000 131.347 138.920 C 131.731 141.046,131.579 141.431,130.517 141.024 C 130.123 140.872,129.761 140.748,129.713 140.748 C 129.369 140.747,124.000 137.963,124.000 137.785 C 124.000 137.297,125.238 135.202,125.510 135.229 C 125.670 135.245,126.970 135.650,128.400 136.129 M143.400 139.000 C 145.820 139.322,149.105 139.588,150.700 139.592 L 153.600 139.600 153.600 142.432 L 153.600 145.264 150.900 145.004 C 147.733 144.699,141.492 143.748,138.491 143.114 C 136.251 142.641,136.328 142.746,135.796 139.450 L 135.545 137.901 137.273 138.159 C 138.223 138.300,140.980 138.679,143.400 139.000 M173.758 139.900 C 173.634 140.945,173.471 142.003,173.397 142.252 C 173.216 142.857,159.798 145.200,156.510 145.200 C 156.146 145.200,156.000 144.416,156.000 142.461 L 156.000 139.722 160.900 139.430 C 163.595 139.270,167.240 138.904,169.000 138.617 C 174.263 137.759,174.021 137.694,173.758 139.900 M130.663 146.877 C 133.261 147.714,133.545 147.911,133.729 149.000 C 133.841 149.660,134.057 150.515,134.209 150.900 C 134.602 151.894,133.911 151.789,131.041 150.419 C 127.138 148.557,122.790 143.726,126.500 145.375 C 127.215 145.693,129.088 146.369,130.663 146.877 M184.400 145.036 C 184.400 146.837,176.324 152.596,175.360 151.482 C 174.405 150.380,176.401 147.609,178.582 147.010 C 179.912 146.645,181.630 146.006,182.400 145.590 C 183.876 144.792,184.400 144.647,184.400 145.036 M142.042 150.222 C 143.889 150.555,147.245 150.938,149.500 151.074 L 153.600 151.321 153.600 153.390 L 153.600 155.460 149.700 154.956 C 146.195 154.503,138.451 152.984,138.159 152.693 C 137.513 152.047,137.359 149.197,137.981 149.394 C 138.367 149.517,140.195 149.889,142.042 150.222 M171.936 150.889 C 171.727 151.817,171.510 152.623,171.454 152.679 C 171.130 153.003,161.707 154.798,159.100 155.032 L 156.000 155.310 156.000 153.315 L 156.000 151.320 160.300 151.049 C 162.665 150.900,166.130 150.448,168.000 150.044 C 169.870 149.641,171.606 149.285,171.857 149.255 C 172.190 149.215,172.211 149.663,171.936 150.889 M137.850 159.280 C 138.010 159.539,137.757 159.580,137.150 159.392 C 135.980 159.031,134.000 158.039,134.000 157.814 C 134.000 157.503,137.598 158.874,137.850 159.280 M175.600 157.822 C 175.600 158.179,171.957 159.690,171.705 159.439 C 171.499 159.232,173.599 158.232,175.500 157.632 C 175.555 157.614,175.600 157.700,175.600 157.822 M145.200 160.782 C 146.630 161.008,149.124 161.195,150.743 161.197 C 153.261 161.200,153.651 161.291,153.443 161.833 C 153.309 162.181,153.200 162.653,153.200 162.882 C 153.200 163.150,153.022 163.163,152.700 162.920 C 152.425 162.712,151.825 162.523,151.366 162.501 C 147.982 162.335,141.200 160.772,141.200 160.159 C 141.200 160.042,141.515 160.041,141.900 160.158 C 142.285 160.274,143.770 160.555,145.200 160.782 M168.099 160.461 C 167.534 161.026,160.833 162.371,158.500 162.388 C 157.429 162.396,156.790 162.585,156.772 162.900 C 156.747 163.341,156.101 162.178,156.028 161.561 C 156.013 161.430,158.025 161.203,160.500 161.057 C 162.975 160.910,165.630 160.631,166.400 160.436 C 168.379 159.935,168.621 159.939,168.099 160.461 M47.600 295.181 L 47.600 322.400 53.800 322.400 L 60.000 322.400 60.000 305.000 L 60.000 287.600 67.500 287.610 L 75.000 287.621 70.497 289.810 C 68.020 291.015,65.725 292.000,65.397 292.000 C 64.877 292.000,64.800 294.125,64.800 308.400 C 64.800 317.420,64.938 324.800,65.106 324.800 C 65.806 324.800,76.842 321.191,79.751 320.011 C 85.763 317.572,91.528 313.525,93.043 310.681 C 95.035 306.938,95.600 305.673,95.845 304.400 C 95.994 303.630,96.266 302.901,96.450 302.781 C 97.205 302.288,97.741 294.374,97.263 290.785 C 95.857 280.225,89.811 272.808,79.752 269.302 L 76.600 268.204 62.100 268.083 L 47.600 267.963 47.600 295.181 M192.105 277.779 C 187.127 278.913,180.031 284.145,178.243 288.000 C 177.886 288.770,177.230 289.966,176.785 290.658 C 174.046 294.915,174.724 310.400,177.649 310.400 C 177.842 310.400,178.000 310.625,178.000 310.900 C 178.001 311.876,181.668 316.052,184.115 317.862 C 192.415 324.002,204.664 323.843,212.116 317.500 C 217.328 313.062,219.484 309.705,220.454 304.516 C 221.436 299.262,219.429 287.600,217.543 287.600 C 217.355 287.600,217.194 287.375,217.187 287.100 C 217.171 286.436,215.799 284.942,213.498 283.081 C 212.465 282.246,211.390 281.336,211.110 281.059 C 208.061 278.047,198.316 276.365,192.105 277.779 M109.277 279.100 C 109.046 279.705,107.738 283.620,106.371 287.800 C 105.004 291.980,103.727 295.603,103.534 295.851 C 103.341 296.099,101.757 300.599,100.014 305.851 C 98.271 311.103,96.397 316.480,95.851 317.800 C 95.305 319.120,94.735 320.695,94.585 321.300 L 94.313 322.400 99.276 322.400 L 104.239 322.400 104.683 321.100 C 104.927 320.385,105.529 318.405,106.022 316.700 L 106.917 313.600 114.641 313.600 L 122.365 313.600 123.336 316.700 C 123.871 318.405,124.433 320.385,124.586 321.100 L 124.864 322.400 129.832 322.400 C 135.439 322.400,135.248 322.549,133.952 319.194 C 133.486 317.987,131.565 312.410,129.683 306.800 C 127.802 301.190,126.136 296.510,125.982 296.400 C 125.828 296.290,124.374 292.106,122.751 287.103 L 119.800 278.006 114.749 278.003 L 109.697 278.000 109.277 279.100 M138.000 300.200 L 138.000 322.400 142.800 322.400 L 147.600 322.400 147.600 300.200 L 147.600 278.000 142.800 278.000 L 138.000 278.000 138.000 300.200 M151.600 300.200 L 151.600 322.400 163.400 322.400 L 175.200 322.400 175.200 318.000 L 175.200 313.600 168.200 313.600 L 161.200 313.600 161.200 295.800 L 161.200 278.000 156.400 278.000 L 151.600 278.000 151.600 300.200 M224.400 300.200 L 224.400 322.400 229.200 322.400 L 234.000 322.400 234.022 312.300 L 234.044 302.200 235.199 305.531 C 235.834 307.363,236.527 309.073,236.740 309.331 C 236.954 309.589,237.878 311.870,238.794 314.400 C 239.711 316.930,240.744 319.771,241.090 320.714 L 241.720 322.428 245.311 322.314 L 248.903 322.200 250.287 318.200 C 251.048 316.000,251.835 314.140,252.036 314.067 C 252.236 313.993,252.400 313.676,252.400 313.361 C 252.400 313.047,252.570 312.477,252.777 312.095 C 252.984 311.713,253.809 309.600,254.610 307.400 C 255.411 305.200,256.219 303.040,256.406 302.600 C 256.605 302.130,256.757 306.055,256.773 312.100 L 256.800 322.400 261.400 322.400 L 266.000 322.400 266.000 300.200 L 266.000 278.000 261.300 278.008 L 256.600 278.015 255.064 282.108 C 254.219 284.358,253.219 287.039,252.842 288.065 C 252.465 289.090,251.971 290.170,251.744 290.465 C 251.331 290.999,251.116 291.539,248.010 299.800 C 247.100 302.220,246.151 304.726,245.901 305.369 L 245.446 306.538 245.090 305.469 C 244.894 304.881,244.568 304.400,244.367 304.400 C 244.165 304.400,244.001 304.175,244.002 303.900 C 244.003 303.625,243.472 302.050,242.822 300.400 C 242.171 298.750,240.712 294.970,239.580 292.000 C 238.447 289.030,237.362 286.406,237.168 286.168 C 236.974 285.931,236.356 284.491,235.794 282.968 C 235.232 281.446,234.577 279.705,234.338 279.100 L 233.903 278.000 229.151 278.000 L 224.400 278.000 224.400 300.200 M284.359 279.088 C 284.122 279.699,283.567 281.370,283.125 282.800 C 282.684 284.230,282.096 285.940,281.818 286.600 C 281.540 287.260,281.086 288.340,280.809 289.000 C 280.531 289.660,279.069 293.946,277.559 298.525 C 276.050 303.103,274.542 307.423,274.210 308.125 C 273.404 309.827,269.600 321.151,269.600 321.849 C 269.600 322.286,270.584 322.400,274.351 322.400 L 279.103 322.400 280.220 318.400 C 280.834 316.200,281.497 314.400,281.692 314.400 C 281.887 314.400,281.936 314.220,281.800 314.000 C 281.638 313.738,284.308 313.600,289.513 313.600 L 297.474 313.600 298.575 317.300 C 299.181 319.335,299.762 321.315,299.865 321.700 C 300.068 322.451,309.600 322.812,309.600 322.069 C 309.600 321.442,304.010 304.694,303.652 304.248 C 303.454 304.001,301.917 299.583,300.235 294.428 C 298.554 289.273,296.981 284.818,296.740 284.528 C 296.499 284.238,296.459 283.997,296.651 283.994 C 296.843 283.991,296.801 283.856,296.558 283.694 C 296.316 283.532,295.771 282.230,295.347 280.800 L 294.578 278.200 289.684 278.088 L 284.790 277.975 284.359 279.088 M326.782 279.900 C 326.494 280.945,326.119 281.896,325.948 282.012 C 325.777 282.129,324.205 286.539,322.454 291.812 C 320.704 297.086,319.048 301.940,318.775 302.600 C 318.501 303.260,318.216 303.980,318.142 304.200 C 318.068 304.420,316.746 308.275,315.204 312.766 C 311.556 323.391,311.371 322.450,317.074 322.313 L 321.749 322.200 323.087 317.900 L 324.425 313.600 331.977 313.600 L 339.529 313.600 340.349 315.300 C 340.800 316.235,341.543 318.215,342.001 319.700 L 342.832 322.400 347.616 322.400 C 350.247 322.400,352.400 322.292,352.400 322.160 C 352.400 321.597,348.637 310.512,348.137 309.600 C 347.835 309.050,346.140 304.196,344.371 298.813 C 342.601 293.430,341.006 288.840,340.827 288.613 C 340.647 288.386,339.738 285.905,338.807 283.100 L 337.114 278.000 332.209 278.000 L 327.304 278.000 326.782 279.900 M203.000 287.180 C 212.300 291.321,214.268 302.662,206.874 309.505 C 200.334 315.557,189.875 313.681,186.223 305.800 C 185.815 304.920,185.283 304.072,185.041 303.915 C 184.462 303.540,184.445 296.075,185.023 295.685 C 185.255 295.528,185.698 294.770,186.006 294.000 C 188.459 287.871,196.923 284.475,203.000 287.180 M293.570 302.500 L 294.338 305.200 289.569 305.200 C 286.946 305.200,284.800 305.088,284.800 304.952 C 284.800 304.450,288.457 293.350,289.118 291.847 L 289.800 290.295 291.301 295.047 C 292.127 297.661,293.148 301.015,293.570 302.500 M333.121 292.926 C 333.447 293.337,334.170 295.508,336.637 303.500 L 337.162 305.200 332.381 305.200 C 329.131 305.200,327.600 305.057,327.600 304.754 C 327.600 302.956,332.153 290.308,332.434 291.326 C 332.605 291.945,332.914 292.665,333.121 292.926 M116.544 296.000 C 117.313 298.530,118.204 301.140,118.525 301.800 C 118.845 302.460,119.221 303.495,119.361 304.100 L 119.615 305.200 114.629 305.200 L 109.643 305.200 110.265 303.100 C 110.607 301.945,111.043 300.902,111.233 300.783 C 111.424 300.663,111.635 300.213,111.701 299.783 C 111.768 299.352,111.927 298.820,112.055 298.600 C 112.182 298.380,112.792 296.529,113.410 294.487 C 114.740 290.094,114.749 290.099,116.544 296.000 " stroke="none" fill="#f45c24" fill-rule="evenodd"></path><path id="path2" d="M170.878 111.498 C 173.231 111.569,177.191 111.569,179.678 111.499 C 182.165 111.429,180.240 111.371,175.400 111.370 C 170.560 111.370,168.525 111.428,170.878 111.498 M197.911 111.493 C 198.851 111.578,200.291 111.577,201.111 111.491 C 201.930 111.405,201.160 111.336,199.400 111.337 C 197.640 111.339,196.970 111.409,197.911 111.493 " stroke="none" fill="#b44c3c" fill-rule="evenodd"></path><path id="path3" d="M166.509 113.200 C 166.509 114.190,166.587 114.595,166.682 114.100 C 166.778 113.605,166.778 112.795,166.682 112.300 C 166.587 111.805,166.509 112.210,166.509 113.200 " stroke="none" fill="#703850" fill-rule="evenodd"></path><path id="path4" d="M166.154 111.777 C 166.032 112.094,166.003 112.679,166.089 113.077 C 166.187 113.528,166.324 113.312,166.454 112.500 C 166.671 111.138,166.530 110.796,166.154 111.777 " stroke="none" fill="#bc4c3c" fill-rule="evenodd"></path></g></svg>